<?xml version="1.0" standalone="no"?>
<!DOCTYPE svg PUBLIC "-//W3C//DTD SVG 20010904//EN"
 "http://www.w3.org/TR/2001/REC-SVG-20010904/DTD/svg10.dtd">
<svg version="1.0" xmlns="http://www.w3.org/2000/svg"
 width="1425.000000pt" height="1425.000000pt" viewBox="0 0 1425.000000 1425.000000"
 preserveAspectRatio="xMidYMid meet">
<metadata>
Created by potrace 1.14, written by Peter Selinger 2001-2017
</metadata>
<g transform="translate(0.000000,1425.000000) scale(0.100000,-0.100000)"
fill="#000000" stroke="none">
<path d="M7789 12128 c-9 -7 -32 -42 -51 -78 -231 -436 -418 -751 -688 -1155
-111 -166 -279 -411 -302 -440 -5 -5 -79 -104 -164 -220 -155 -207 -244 -325
-254 -335 -3 -3 -48 -59 -100 -125 -152 -193 -649 -788 -680 -815 -3 -3 -32
-36 -65 -75 -33 -38 -74 -85 -91 -105 -41 -47 -206 -232 -219 -246 -5 -6 -41
-46 -80 -90 -65 -73 -92 -103 -202 -224 -23 -25 -54 -58 -69 -75 -15 -16 -57
-62 -93 -100 -36 -39 -113 -122 -171 -185 -58 -62 -120 -129 -137 -148 -18
-19 -60 -64 -94 -101 -34 -36 -117 -124 -184 -196 -67 -71 -140 -150 -162
-174 l-40 -43 -106 -3 c-346 -10 -691 -25 -892 -40 -219 -16 -258 -19 -385
-30 -213 -19 -399 -40 -565 -65 -33 -5 -82 -12 -110 -16 -27 -3 -57 -7 -65 -9
-8 -1 -35 -6 -60 -10 -25 -4 -54 -9 -65 -11 -27 -6 -68 -13 -107 -19 -18 -3
-40 -8 -48 -10 -8 -2 -31 -7 -50 -10 -19 -3 -55 -11 -80 -16 -25 -6 -52 -12
-60 -14 -8 -2 -35 -8 -60 -14 -25 -7 -54 -14 -64 -16 -106 -25 -292 -87 -430
-145 -317 -132 -562 -344 -688 -595 -80 -157 -108 -300 -103 -525 3 -167 15
-242 75 -505 21 -93 42 -185 45 -204 3 -19 7 -37 9 -40 2 -3 7 -31 11 -61 3
-30 8 -62 10 -70 4 -16 9 -51 25 -180 24 -201 33 -341 33 -525 1 -128 -9 -386
-17 -455 -3 -19 -7 -66 -11 -105 -3 -38 -8 -77 -10 -85 -2 -8 -6 -46 -10 -83
-3 -37 -8 -76 -10 -86 -2 -10 -6 -42 -10 -71 -4 -29 -9 -62 -11 -74 -2 -12 -9
-52 -14 -91 -6 -38 -14 -92 -20 -120 -5 -27 -12 -63 -15 -80 -3 -16 -12 -68
-20 -115 -33 -190 -38 -337 -16 -453 17 -87 45 -130 91 -138 57 -9 83 12 130
103 441 851 1054 1739 1888 2733 154 184 418 486 707 811 34 38 174 193 195
215 14 15 50 55 82 90 31 35 69 78 85 94 59 64 258 279 268 290 6 6 39 42 75
80 36 39 119 128 185 199 66 70 154 164 196 209 l76 80 199 3 c218 3 1471 4
1787 1 217 -2 212 0 185 -64 -6 -15 -12 -30 -13 -33 -1 -3 -52 -158 -114 -345
-62 -187 -123 -374 -136 -415 -12 -41 -48 -158 -79 -260 -32 -102 -59 -192
-61 -200 -2 -8 -29 -103 -60 -210 -101 -352 -228 -868 -272 -1110 -2 -14 -10
-56 -18 -95 -17 -87 -33 -178 -40 -230 -2 -22 -7 -49 -9 -60 -3 -18 -9 -57
-21 -145 -2 -14 -6 -52 -10 -85 -3 -33 -9 -85 -13 -115 -12 -88 -8 -158 9
-175 28 -28 74 -35 111 -16 44 24 55 50 62 151 4 47 9 101 11 120 2 19 7 55
10 80 13 104 16 129 26 200 6 41 13 84 16 95 2 11 6 32 8 46 48 322 223 1015
436 1719 77 253 364 1128 374 1138 2 2 28 4 57 4 29 0 361 -3 738 -7 469 -4
695 -3 713 4 75 29 63 161 -15 174 -18 3 -229 6 -468 7 -669 2 -949 5 -955 12
-3 3 -1 16 4 29 6 13 55 150 110 304 54 154 117 330 139 390 23 61 82 223 132
360 50 138 95 259 100 270 9 23 32 83 89 240 22 61 72 196 111 300 39 105 73
197 75 205 3 8 72 200 155 425 166 452 280 781 372 1070 64 203 118 380 123
405 2 8 13 53 25 100 25 98 23 87 49 205 11 50 23 110 26 135 4 25 9 56 11 70
10 64 3 231 -12 280 -23 77 -85 140 -144 147 -29 3 -51 0 -61 -9z m36 -350
c-2 -30 -12 -104 -20 -153 -2 -11 -11 -54 -20 -95 -9 -41 -18 -82 -20 -91 -23
-110 -170 -603 -235 -794 -17 -49 -33 -97 -35 -105 -10 -45 -348 -976 -575
-1585 -61 -165 -127 -340 -145 -390 -150 -404 -366 -1000 -454 -1255 l-37
-105 -1036 0 c-768 0 -1034 3 -1030 11 4 7 57 65 118 130 61 66 122 131 135
145 13 15 76 82 139 149 63 68 122 131 130 140 8 10 62 68 120 130 58 62 110
118 115 124 6 6 53 58 105 116 52 58 100 110 105 116 12 13 117 130 237 264
46 52 95 108 109 124 13 16 31 36 39 45 9 9 43 48 75 86 33 39 65 75 71 80 5
6 35 39 64 75 30 36 67 79 82 95 29 32 180 213 357 430 575 703 1100 1456
1483 2130 47 83 93 165 102 183 9 17 18 32 20 32 2 0 3 -15 1 -32z m-4065
-4774 c0 -2 -19 -24 -42 -48 -52 -54 -103 -109 -278 -296 -74 -80 -158 -170
-186 -200 -29 -30 -61 -65 -72 -77 -10 -12 -59 -66 -108 -119 -137 -148 -137
-148 -175 -190 -38 -42 -187 -208 -303 -338 -39 -43 -76 -84 -81 -90 -217
-239 -746 -871 -940 -1121 -38 -49 -72 -92 -75 -95 -11 -10 -194 -253 -332
-443 -328 -448 -633 -917 -868 -1332 -72 -128 -72 -128 -65 -89 2 16 12 76 20
134 9 58 19 116 21 130 4 24 49 317 59 390 3 19 7 46 10 60 2 14 6 45 9 70 3
25 8 65 11 90 3 25 7 63 10 85 27 227 27 812 0 1010 -3 22 -8 56 -10 75 -8 79
-26 214 -29 219 -2 3 -7 28 -10 55 -4 27 -9 53 -11 56 -2 4 -7 21 -10 38 -3
17 -18 89 -35 159 -91 398 -107 600 -60 788 14 57 99 243 121 265 9 8 20 23
25 32 5 9 35 44 66 77 152 161 373 287 673 385 95 31 413 107 540 130 50 9 99
18 110 20 11 2 40 7 65 11 25 4 52 9 61 10 9 2 40 6 70 10 30 3 61 8 69 10 8
2 40 7 70 10 30 3 66 8 80 10 24 4 75 10 170 20 25 3 63 7 85 10 22 2 72 7
110 10 39 3 88 8 110 10 22 2 83 7 135 10 52 3 113 8 135 10 22 3 94 7 160 11
66 3 140 7 165 9 25 3 131 7 235 11 105 3 191 7 192 8 4 3 103 3 103 0z"/>
<path d="M5755 8775 c-26 -61 -225 -526 -240 -560 -8 -16 -36 -80 -63 -142
-27 -61 -61 -127 -76 -146 l-26 -34 54 -1 55 0 -16 33 c-15 30 -14 38 1 84 9
28 32 84 51 126 l34 75 203 -2 202 -3 43 -102 c48 -114 56 -157 36 -189 -14
-21 -13 -22 81 -22 l96 0 -31 37 c-27 35 -249 540 -249 569 0 6 -4 12 -10 12
-5 0 -10 6 -10 13 0 6 -27 75 -59 152 l-60 140 -16 -40z m-5 -121 c0 -8 5 -22
10 -32 6 -9 46 -102 89 -207 l79 -190 -99 -3 c-54 -1 -143 -1 -197 0 l-99 3
74 170 c40 94 84 196 98 228 23 53 45 68 45 31z"/>
<path d="M10035 9019 c-11 -6 -43 -59 -75 -124 -48 -101 -60 -118 -101 -144
-130 -85 -198 -213 -205 -384 l-4 -98 -355 -707 c-352 -701 -396 -787 -562
-1097 -156 -290 -354 -628 -466 -795 -168 -251 -376 -457 -494 -489 -86 -24
-137 1 -232 117 -143 173 -315 186 -616 47 -33 -15 -98 -45 -145 -67 -117 -54
-169 -73 -287 -102 -120 -31 -154 -32 -175 -8 -43 47 26 325 158 634 30 70 54
134 54 143 0 50 -52 96 -99 88 -25 -4 -61 -30 -61 -44 0 -4 -13 -36 -29 -71
-90 -195 -176 -455 -197 -599 -5 -30 -8 -83 -8 -119 -1 -107 55 -186 144 -205
61 -12 83 -13 142 -4 174 25 255 51 453 144 237 112 306 137 380 137 70 1 104
-20 175 -107 71 -87 106 -115 175 -141 155 -58 345 15 530 203 69 70 107 96
255 183 235 136 294 162 416 184 91 16 193 14 204 -4 13 -21 -13 -61 -76 -119
-105 -97 -134 -111 -247 -127 -153 -21 -166 -23 -229 -40 -94 -24 -186 -73
-249 -134 -51 -48 -59 -61 -59 -91 0 -71 80 -116 190 -106 107 9 338 106 503
211 12 8 47 17 77 21 30 4 66 8 80 10 14 2 52 6 85 10 193 22 229 26 255 30
14 2 58 7 98 10 l72 6 0 -57 c0 -263 419 -311 875 -101 205 94 485 278 635
416 25 23 53 46 63 52 15 9 16 8 7 -8 -5 -10 -38 -94 -71 -188 -34 -93 -77
-213 -96 -265 -134 -363 -143 -431 -66 -461 29 -11 65 1 179 57 103 51 221
137 406 295 279 238 437 323 608 328 118 3 200 -33 369 -161 82 -62 227 -132
307 -148 77 -15 191 -19 258 -8 28 4 69 10 91 14 155 22 451 180 487 259 15
34 2 73 -33 94 -43 27 -79 19 -140 -29 -71 -56 -161 -104 -249 -134 -92 -30
-130 -37 -241 -41 -142 -6 -235 27 -389 136 -110 79 -128 90 -200 125 -111 53
-137 59 -260 58 -98 0 -126 -4 -193 -27 -173 -60 -333 -165 -552 -361 -100
-90 -275 -223 -275 -208 0 11 105 302 244 678 69 187 126 348 126 358 0 27
-58 76 -90 76 -22 0 -53 -26 -156 -131 -379 -385 -730 -614 -1083 -706 -149
-39 -333 -40 -375 -2 -5 4 27 25 70 47 293 146 534 325 590 438 53 108 27 191
-71 235 -75 33 -115 20 -285 -94 -129 -86 -266 -209 -355 -318 -28 -35 -34
-37 -105 -44 -41 -3 -86 -8 -100 -10 -14 -2 -54 -6 -90 -10 -36 -4 -76 -8 -90
-10 -14 -2 -50 -7 -80 -10 -30 -4 -58 -9 -62 -11 -14 -9 -9 2 27 62 19 32 36
65 36 73 1 9 3 32 4 51 4 42 -23 107 -56 136 -101 92 -354 72 -615 -46 -63
-28 -65 -29 -52 -7 235 360 478 811 1070 1984 l203 402 40 -41 c145 -147 349
-179 533 -84 51 26 140 115 171 170 49 87 62 140 62 251 0 149 -39 253 -131
345 -61 61 -93 81 -179 111 -62 22 -71 23 -71 9 0 -5 8 -10 19 -10 59 0 145
-69 185 -149 46 -92 57 -143 62 -291 7 -237 -56 -384 -194 -451 -65 -31 -197
-32 -262 -2 -77 35 -143 117 -170 208 -12 40 -11 40 137 335 82 162 155 310
161 329 9 26 16 32 32 28 11 -3 20 -1 20 4 0 5 -7 9 -16 9 -17 0 -13 22 13 74
22 43 9 92 -30 116 -35 22 -52 24 -82 9z m-205 -385 c-17 -33 -28 -48 -24 -34
8 30 46 101 51 96 2 -2 -10 -30 -27 -62z m310 -2966 c-30 -28 -93 -76 -140
-107 -111 -75 -120 -79 -90 -46 31 34 170 143 225 175 22 13 42 28 44 33 1 4
6 5 10 2 3 -4 -19 -30 -49 -57z"/>
<path d="M8330 8808 c-37 -10 -93 -48 -122 -83 -26 -30 -47 -106 -42 -154 10
-99 56 -143 289 -278 183 -105 218 -144 218 -239 0 -64 -32 -113 -95 -145
-123 -63 -320 -1 -384 121 l-24 45 0 -82 0 -81 38 5 c25 3 66 -4 121 -21 142
-45 256 -31 340 41 109 93 113 242 9 339 -27 27 -218 144 -233 144 -6 0 -133
84 -156 102 -52 43 -71 119 -45 181 43 104 188 134 316 66 54 -28 84 -60 119
-124 8 -16 10 -4 11 57 l0 76 -37 -5 c-26 -3 -57 3 -97 20 -64 26 -165 33
-226 15z"/>
<path d="M3467 8793 c7 -2 20 -19 28 -37 13 -28 15 -88 13 -428 -3 -373 -4
-397 -22 -417 l-19 -21 47 0 47 0 -16 31 c-14 27 -17 87 -19 434 -1 222 2 401
6 399 8 -5 15 -20 110 -229 27 -60 70 -152 94 -203 24 -51 44 -95 44 -97 0 -2
25 -57 56 -122 31 -65 65 -138 75 -162 11 -24 21 -42 23 -40 2 2 24 49 49 104
25 55 63 138 85 185 21 47 81 177 133 290 51 113 103 225 116 250 l22 45 -2
-415 c-2 -379 -4 -418 -20 -443 l-17 -27 80 0 81 0 -16 29 c-13 25 -15 91 -15
419 -1 384 3 435 33 454 7 5 -21 7 -62 6 l-74 -3 -51 -110 c-28 -61 -63 -138
-78 -170 -70 -157 -83 -186 -122 -270 -24 -49 -56 -121 -72 -158 l-29 -68 -45
93 c-25 52 -60 128 -79 169 -77 166 -110 237 -141 304 -18 39 -47 103 -66 143
l-33 72 -78 -1 c-43 0 -72 -3 -66 -6z"/>
<path d="M7090 8767 c19 -32 20 -52 17 -428 -2 -359 -4 -397 -20 -422 l-17
-27 87 0 c49 0 83 4 77 8 -34 22 -36 52 -37 436 0 210 4 392 8 406 4 14 14 33
23 43 14 16 10 17 -71 17 l-86 0 19 -33z"/>
<path d="M11454 8753 l47 -47 -3 -387 c-3 -364 -4 -388 -22 -408 l-19 -21 46
0 45 0 -16 33 c-14 28 -16 80 -17 400 0 258 3 364 10 354 13 -18 63 -80 140
-172 33 -40 159 -194 280 -343 121 -149 222 -271 225 -271 3 -1 5 192 5 427 0
393 1 430 18 455 l17 27 -45 0 -45 0 17 -27 c16 -25 18 -60 19 -375 0 -191 -2
-348 -5 -347 -3 0 -33 35 -67 77 -102 128 -245 305 -268 332 -12 14 -79 96
-150 183 l-128 157 -65 0 -66 0 47 -47z"/>
<path d="M9770 6580 c-35 -35 -6 -96 61 -130 43 -22 224 -68 399 -100 58 -11
139 -28 180 -37 109 -25 117 -25 134 -8 12 13 13 21 4 40 -6 14 -18 26 -27 26
-9 1 -36 3 -61 4 -58 2 -260 57 -347 94 -37 16 -99 48 -138 70 -108 63 -170
76 -205 41z"/>
<path d="M14107 5159 c-32 -18 -47 -62 -36 -102 12 -44 42 -67 86 -67 80 0
120 104 60 156 -30 25 -78 31 -110 13z"/>
</g>
</svg>
