<?xml version="1.0" standalone="no"?>
<!DOCTYPE svg PUBLIC "-//W3C//DTD SVG 20010904//EN"
 "http://www.w3.org/TR/2001/REC-SVG-20010904/DTD/svg10.dtd">
<svg version="1.0" xmlns="http://www.w3.org/2000/svg"
 width="180.000000pt" height="136.000000pt" viewBox="0 0 180.000000 136.000000"
 preserveAspectRatio="xMidYMid meet">

<g transform="translate(0.000000,136.000000) scale(0.100000,-0.100000)"
fill="#000000" stroke="none">
<path d="M424 1333 c-64 -117 -397 -805 -409 -845 -86 -292 184 -559 474 -469
196 61 304 268 243 467 -33 105 -113 194 -208 230 -24 9 -44 22 -44 27 0 6 40
117 90 246 49 130 101 266 114 304 l26 67 -136 0 -135 0 -15 -27z"/>
<path d="M1272 933 c-188 -378 -214 -436 -222 -496 -23 -174 55 -324 208 -399
61 -30 74 -33 162 -33 88 0 101 3 162 33 84 41 158 120 189 200 31 80 30 195
-1 277 -30 78 -123 173 -195 200 -27 10 -51 19 -53 20 -1 1 49 139 113 305 63
167 115 307 115 312 0 4 -60 8 -133 8 l-132 0 -213 -427z"/>
</g>
</svg>
