<?xml version="1.0" standalone="no"?>
<!DOCTYPE svg PUBLIC "-//W3C//DTD SVG 20010904//EN"
 "http://www.w3.org/TR/2001/REC-SVG-20010904/DTD/svg10.dtd">
<svg version="1.0" xmlns="http://www.w3.org/2000/svg"
 width="180.000000pt" height="136.000000pt" viewBox="0 0 180.000000 136.000000"
 preserveAspectRatio="xMidYMid meet">

<g transform="translate(0.000000,136.000000) scale(0.100000,-0.100000)"
fill="#000000" stroke="none">
<path d="M45 1343 c42 -106 225 -593 225 -599 0 -5 -20 -17 -45 -27 -134 -56
-225 -196 -225 -346 0 -160 108 -304 261 -352 188 -58 387 34 464 216 25 60
30 168 12 241 -9 36 -102 234 -220 470 l-204 409 -138 3 c-128 2 -137 1 -130
-15z"/>
<path d="M1090 1353 c0 -3 52 -143 115 -309 63 -166 115 -304 115 -307 0 -2
-18 -9 -39 -16 -85 -25 -181 -126 -216 -226 -24 -71 -22 -185 4 -255 30 -80
106 -161 189 -202 61 -30 74 -33 162 -33 88 0 101 3 162 33 118 58 194 165
212 297 14 102 -8 160 -229 608 l-206 417 -135 0 c-73 0 -134 -3 -134 -7z"/>
</g>
</svg>
